<?xml version="1.0" encoding="utf-8"?>
<!-- Svg Vector Icons : http://www.onlinewebfonts.com/icon -->
<!DOCTYPE svg PUBLIC "-//W3C//DTD SVG 1.1//EN" "http://www.w3.org/Graphics/SVG/1.1/DTD/svg11.dtd">
<svg version="1.1" xmlns="http://www.w3.org/2000/svg" xmlns:xlink="http://www.w3.org/1999/xlink" x="0px" y="0px" viewBox="0 0 256 256" enable-background="new 0 0 256 256" xml:space="preserve">
<metadata> Svg Vector Icons : http://www.onlinewebfonts.com/icon </metadata>
<g><g><g><path fill="#AE0000" d="M205.4,43.9c-6.3,1.4-12,5.1-14,9.4c-2.3,4.6-0.7,9.4,5.8,18c4.9,6.5,5.8,9,5.8,16.2c0,4.3-0.2,5.8-1.4,9.1c-3.5,10.2-10,16.7-18.8,18.7c-8.2,1.9-22.7-0.9-27.1-5.2c-2.4-2.3-2.7-5.8-0.9-9.6c1.4-3,2.9-4.4,7.4-7c7.5-4.4,12.8-9.9,15-15.7c1-2.5,1.1-3.7,1.1-9c0-5.4-0.2-6.7-1.3-10.2c-1.9-5.6-3.9-8.4-7.2-10.1c-4-2-11.7-3.8-17.8-4.2c-4.8-0.2-5.5-0.2-9.3,1.1c-10.5,3.5-17.3,8.6-20.4,15.2c-0.6,1.4-1.6,4.8-2.2,7.6c-1.7,8.3-5.2,16-9,20.1c-4.3,4.5-13.9,8.8-20.9,9.3c-6.3,0.5-16.2-1.5-21.9-4.4c-5.6-2.8-14.9-14.1-21.2-25.7c-2.6-4.7-5.5-8.5-9.7-12.3c-6.4-5.9-13-9.6-16.9-9.6c-3.7,0-7.9,2.9-9.6,6.6c-1.2,2.5-1.2,4.3,0,7.8c2.1,6,5.7,10.3,9.3,10.9c2,0.3,8-0.6,8-1.2c0-0.2-1.5-0.4-3.4-0.6c-2.8-0.1-3.7-0.4-5.2-1.6c-2.6-2-3.7-4-3.7-6.8c0-2.9,1-5,3.1-6.2c2.9-1.8,5.2-1.2,10.4,3c4.7,3.7,6.2,5.6,12.1,14.7c7.4,11.6,11.3,16.6,16.7,21.9c5.2,5,9,7.7,15.1,10.6c8.4,4,17,6.1,23.5,5.8l3.9-0.2l-2,1.7c-7.5,6.5-12.7,8.8-20.7,8.7c-8.2,0-10.8-1-27-9.4c-6.3-3.2-12-5-16.3-5c-11.4,0-20.6,7.8-23.1,19.7c-1.2,5.6-0.7,14.7,1,20c3.4,10.6,10.8,16,18,13.1c3.6-1.5,4.7-6.3,2-9.1c-2-2-2.6-1.9-2.2,0.5c0.2,1.6,0.1,2-0.7,2.5c-1.6,0.9-6,0.6-7.6-0.4c-2.7-1.7-5.1-6.6-5.9-11.7c-0.8-4.6,2-12.2,6.2-17.5c3.2-3.9,6.5-5.5,12.2-5.7c2.5-0.1,5.3,0,6.6,0.3c1.3,0.3,7,2.8,12.6,5.5c15.1,7.2,18.6,8.2,30.4,8.7l7.3,0.3l-4.1,2.6c-5.2,3.2-11.7,5.9-20.1,8.3c-9.3,2.6-12.6,4.4-15,8.5c-1.4,2.4-2.6,6.7-2.6,9.4c0,2.9,1.4,7.5,2.7,8.8c1.5,1.6,1.9,1.1,1-1.1c-0.9-2.3-0.9-5.9,0-9c1.5-5.1,5.1-7,23.4-12c21.4-5.8,24.2-7.1,31.8-14.4l3-2.9l0.2,7.5c0.2,5.7,0.1,7.8-0.4,8.7c-1.1,1.9-9.9,11.8-12.1,13.7c-5.4,4.6-14.9,7-19.8,5c-1.6-0.6-3.7-3.9-3.7-5.8c-0.1-0.5-0.2-0.4-0.7,0.2c-1,1.4-0.9,3.2,0.4,5.5c1.5,2.6,3.7,4,7,4.5c6,0.7,10.6-0.8,23.8-7.8l8.6-4.6l2,4.2c2.9,6,5.4,9.2,13.9,17.3c9.3,8.8,9.6,9.3,9.3,13.7c-0.1,2.7-0.5,3.8-1.7,5.8c-2.7,4.3-9,7.2-15.9,7.3c-5.3,0-7.7-1.5-8.6-5.5c-0.3-1.3-0.1-1.8,1.5-3.6c1.7-1.9,1.7-2,0.5-1.5c-4.1,1.6-6.2,3.8-6.2,6.6c0,3.5,3.3,7.6,7.8,9.4c4.7,2,12,1.7,17.1-0.8c7.9-3.7,13.2-9.2,14.4-15.1c0.8-3.7-0.1-9.9-2-13.8c-1.4-2.9-2.4-4.1-9.7-12.4c-4.5-5.2-6.8-9.1-8.7-15.1c-1.5-4.9-1.6-5.8-0.2-7.7c1.5-2.2,4.2-7.6,4.8-9.8c0.3-1.1,0.7-2.3,0.9-2.7c0.1-0.4,1.5,1.7,3.2,5.1c2.6,5.2,3.5,6.3,7.7,10.6c12.2,12.3,20.2,16.5,33.6,18c10.9,1.2,19.3,3.4,23.7,6.1c3,2,7.9,7,9.1,9.6c1.4,2.9,2.1,8.6,1.5,12.8c-0.6,4.7-3.1,9.5-8.6,16.4c-0.9,1.2,2.1-0.6,5.2-3c4.4-3.5,7.6-10.7,8.6-19.3c0.7-6.1-2.6-15.3-7.3-20.7c-3.8-4.3-12-7.8-23.2-10c-2.9-0.6-6.7-1.3-8.3-1.6c-3.5-0.7-13.5-5.5-16.9-8.2c-2.1-1.6-7.7-8.4-7.4-8.8c0.1,0,2,0.4,4.3,1.1c11.8,3.4,24.1,5,32.6,4.1c11.1-1.1,19.8-4.6,25.5-10.3c7.2-7.1,9.2-12.6,11.7-31.1c1-7.4,1.7-9.1,4.3-9.8c3.2-0.9,7.9,1.6,9,4.9c0.6,1.8,0.4,10-0.3,12.2c-0.9,2.8,1.4-2.1,2.5-5.5c2.3-6.9,1.1-13.7-3.1-17.5c-4-3.6-9.8-3.6-13.4,0c-2.1,2.1-2.5,3.3-3.8,12.2c-2.3,14.7-4.7,20.3-11.1,25c-4.2,3.1-12.2,7-16.5,7.9c-7.2,1.5-22.2,0.1-29.4-2.7c-2.6-1-7.5-3.4-7.5-3.6c0,0,4-0.1,9-0.1c8.1,0,9.4-0.2,13.9-1.3c7.1-1.9,10.6-3.8,15.3-8.4c7.6-7.3,12.1-16.3,13.2-26.2c0.4-4.5-0.4-7.7-4.4-16c-3.5-7.3-5.2-12-5.2-14.8c0-3.7,2.2-7.2,5.6-9c1.7-0.8,2.6-1,5.7-0.8c4.9,0.3,8.6,2,12.4,5.7c3.6,3.4,5.4,6.6,5.4,9.7c0,2.9-1.5,4-4.3,3.5l-1.9-0.3l1,1c1.8,1.8,5.7,1.6,7.7-0.4c1.2-1.2,1.4-1.8,1.4-4.1c0-10-8.6-20-19-22.2C211.6,43.1,209.3,43.1,205.4,43.9z"/></g></g></g>
</svg>